<svg xmlns="http://www.w3.org/2000/svg" viewBox="0 0 49.08 49.2"><defs><style>.cls-1{fill:#555656;}</style></defs><title>edit-icon</title><g id="Layer_2" data-name="Layer 2"><g id="Layer_1-2" data-name="Layer 1"><path class="cls-1" d="M34.79,5.92a.5.5,0,0,0-.7,0L.15,39.86a.49.49,0,0,0-.15.36V48.7a.5.5,0,0,0,.5.5H9a.5.5,0,0,0,.35-.14L43.28,15.11a.48.48,0,0,0,0-.7ZM8.78,48.2H1V40.42L34.44,7l7.78,7.78Z"/><path class="cls-1" d="M48.94,8.75,40.33.15a.48.48,0,0,0-.7,0L36.8,3a.5.5,0,0,0,0,.71l8.6,8.61a.52.52,0,0,0,.71,0l2.83-2.83a.52.52,0,0,0,.14-.36A.5.5,0,0,0,48.94,8.75Zm-3.18,2.47-7.9-7.89L40,1.21l7.9,7.89Z"/><path class="cls-1" d="M34.09,11.58,7.22,38.45a.5.5,0,0,0,0,.71.52.52,0,0,0,.35.14.54.54,0,0,0,.36-.14L34.8,12.28a.5.5,0,0,0,0-.7A.5.5,0,0,0,34.09,11.58Z"/><path class="cls-1" d="M10.05,42a.48.48,0,0,0,.7,0L37.62,15.11a.49.49,0,0,0-.7-.7L10.05,41.28A.48.48,0,0,0,10.05,42Z"/></g></g></svg>