<svg xmlns="http://www.w3.org/2000/svg" viewBox="0 0 27.07 33.48"><defs><style>.cls-1{fill:#fffef9;}</style></defs><title>tamp-white</title><g id="Layer_2" data-name="Layer 2"><g id="Layer_1-2" data-name="Layer 1"><path class="cls-1" d="M.46,33.48H26.61a.47.47,0,0,0,.46-.46V27.74a.47.47,0,0,0-.17-.35h0l0,0a.24.24,0,0,0-.11-.06L20.37,24c-2.47-3.68-1.56-6.69-.58-9.88a19.75,19.75,0,0,0,1.12-5.65h0V4c0-2.34-3-4-7.38-4S6.16,1.63,6.16,4V8.51h0a19.75,19.75,0,0,0,1.12,5.65c1,3.19,1.89,6.2-.58,9.89L.32,27.31a.34.34,0,0,0-.12.06l0,0h0a.46.46,0,0,0-.16.34V33A.47.47,0,0,0,.46,33.48Zm6.67-8.63H19.94l4.75,2.43H2.38ZM4.69,28.2v4.36H3.94V28.2Zm-3.78,0H3v4.36H.91Zm25.24,4.36H5.6V28.2H26.15ZM7.07,4.43H20V8.05H7.07ZM13.53.91c3.36,0,6,1.09,6.39,2.61H7.15C7.58,2,10.18.91,13.53.91Zm-5.37,13A20.22,20.22,0,0,1,7.11,9H20a20.7,20.7,0,0,1-1.05,4.93c-.7,2.32-1.42,4.69-.8,7.33H9C9.58,18.59,8.86,16.22,8.16,13.9Zm.53,8.24h9.69a11.06,11.06,0,0,0,.84,1.8H7.85A10.68,10.68,0,0,0,8.69,22.14Z"/></g></g></svg>